<svg xmlns="http://www.w3.org/2000/svg" width="16" height="16" version="1.1" viewBox="0 0 16 16"><metadata/><g transform="translate(0 -292.77)"><rect width="14" height="14" x="1" y="293.77" fill="#f60" ry="2"/><rect width="2" height="2" x="3" y="294.77" fill="#fff" stroke-width="2"/><rect width="2" height="2" x="9" y="300.77" fill="#fff" stroke-width="2"/><rect width="2" height="2" x="10" y="298.77" fill="#fff" stroke-width="2" ry="0"/><rect width="2" height="2" x="11" y="294.77" fill="#fff" stroke-width="2"/><rect width="2" height="2" x="11" y="296.77" fill="#fff" stroke-width="2"/><rect width="2" height="2" x="4" y="298.77" fill="#fff" stroke-width="2"/><rect width="2" height="2" x="5" y="300.77" fill="#fff" stroke-width="2"/><rect width="2" height="2" x="7" y="301.77" fill="#fff" stroke-width="2"/><rect width="1" height="1" x="2" y="305.77" fill="#fff" stroke-width="1"/><rect width="1" height="1" x="3" y="304.77" fill="#fff" stroke-width="1"/><rect width="1" height="1" x="4" y="305.77" fill="#fff" stroke-width="1"/><rect width="1" height="1" x="5" y="304.77" fill="#fff" stroke-width="1"/><rect width="1" height="1" x="6" y="305.77" fill="#fff" stroke-width="1"/><rect width="1" height="1" x="7" y="304.77" fill="#fff" stroke-width="1"/><rect width="1" height="1" x="8" y="305.77" fill="#fff" stroke-width="1"/><rect width="1" height="1" x="9" y="304.77" fill="#fff" stroke-width="1"/><rect width="1" height="1" x="10" y="305.77" fill="#fff" stroke-width="1"/><rect width="1" height="1" x="11" y="304.77" fill="#fff" stroke-width="1"/><rect width="1" height="1" x="12" y="305.77" fill="#fff" stroke-width="1"/><rect width="1" height="1" x="13" y="304.77" fill="#fff" stroke-width="1"/><rect width="1" height="1" x="10" y="304.77" fill="#fff" stroke-width="1"/><rect width="1" height="1" x="5" y="305.77" fill="#fff" stroke-width="1"/><rect width="2" height="2" x="3" y="296.77" fill="#fff" stroke-width="2"/></g></svg>