<svg xmlns="http://www.w3.org/2000/svg" xmlns:svg="http://www.w3.org/2000/svg" id="svg8" width="16" height="16" version="1.1" viewBox="0 0 16 16"><metadata id="metadata5"/><g id="layer1" transform="translate(0,-292.76665)"><rect id="rect3721" width="14" height="14" x="1" y="293.767" ry="2" style="fill:#f60"/><rect id="rect3731" width="2" height="2" x="3" y="294.767" style="fill:#fff;stroke-width:1.99999368"/><rect id="rect3741" width="2" height="2" x="9" y="300.767" style="fill:#fff;stroke-width:1.99999368"/><rect id="rect3745" width="2" height="2" x="10" y="298.767" ry="0" style="fill:#fff;stroke-width:1.99999368"/><rect id="rect3753" width="2" height="2" x="11" y="294.767" style="fill:#fff;stroke-width:1.99999368"/><rect id="rect3757" width="2" height="2" x="11" y="296.767" style="fill:#fff;stroke-width:1.99999344"/><rect id="rect3737-5" width="2" height="2" x="4" y="298.767" style="fill:#fff;stroke-width:1.99999344"/><rect id="rect3737-2" width="2" height="2" x="5" y="300.767" style="fill:#fff;stroke-width:1.99999368"/><rect id="rect3737-75" width="2" height="2" x="7" y="301.767" style="fill:#fff;stroke-width:1.99999368"/><rect id="rect3753-2" width="1" height="1" x="2" y="305.767" style="fill:#fff;stroke-width:.99999052"/><rect id="rect3753-2-4" width="1" height="1" x="3" y="304.767" style="fill:#fff;stroke-width:.99999052"/><rect id="rect3753-2-1" width="1" height="1" x="4" y="305.767" style="fill:#fff;stroke-width:.99999052"/><rect id="rect3753-2-9" width="1" height="1" x="5" y="304.767" style="fill:#fff;stroke-width:.99999052"/><rect id="rect3753-2-2" width="1" height="1" x="6" y="305.767" style="fill:#fff;stroke-width:.99999052"/><rect id="rect3753-2-18" width="1" height="1" x="7" y="304.767" style="fill:#fff;stroke-width:.99999052"/><rect id="rect3753-2-43" width="1" height="1" x="8" y="305.767" style="fill:#fff;stroke-width:.99999052"/><rect id="rect3753-2-5" width="1" height="1" x="9" y="304.767" style="fill:#fff;stroke-width:.99999052"/><rect id="rect3753-2-50" width="1" height="1" x="10" y="305.767" style="fill:#fff;stroke-width:.99999052"/><rect id="rect3753-2-11" width="1" height="1" x="11" y="304.767" style="fill:#fff;stroke-width:.99999052"/><rect id="rect3753-2-0" width="1" height="1" x="12" y="305.767" style="fill:#fff;stroke-width:.99999052"/><rect id="rect3753-2-8" width="1" height="1" x="13" y="304.767" style="fill:#fff;stroke-width:.99999052"/><rect id="rect3753-2-41" width="1" height="1" x="10" y="304.767" style="fill:#fff;stroke-width:.99999052"/><rect id="rect3753-2-15" width="1" height="1" x="5" y="305.767" style="fill:#fff;stroke-width:.99999052"/><rect id="rect3741-1" width="2" height="2" x="3" y="296.767" style="fill:#fff;stroke-width:1.99999368"/></g></svg>